<svg xmlns:xlink="http://www.w3.org/1999/xlink" xmlns="http://www.w3.org/2000/svg" version="1.1" viewBox="49.25 0 151.75 64.5" style="max-height: 500px" width="151.75" height="64.5">
<g id="surface1">
<path d="M 82.671875 0 C 64.644531 -0.292969 49.890625 14.953125 49.890625 32.851562 L 49.890625 60.210938 C 49.890625 62.304688 51.601562 64 53.710938 64 L 167.867188 64 C 185.648438 64 200.105469 49.648438 200.105469 32 C 200.105469 14.351562 185.9375 0.292969 168.421875 0 Z M 82.671875 0" style="stroke:none;fill-rule:nonzero;fill:rgb(100%,20.392157%,0.392157%);fill-opacity:1;"/>
<path d="M 72.132812 49.375 C 69.875 48.140625 68.113281 46.40625 66.851562 44.1875 C 65.585938 41.957031 64.964844 39.421875 64.964844 36.570312 C 64.964844 33.71875 65.578125 31.101562 66.796875 28.828125 C 68.019531 26.554688 69.71875 24.78125 71.894531 23.53125 C 74.066406 22.28125 76.550781 21.65625 79.355469 21.65625 C 82.15625 21.65625 84.429688 22.261719 86.5 23.480469 C 88.5625 24.695312 90.191406 26.425781 91.382812 28.667969 C 92.570312 30.90625 93.1875 33.53125 93.214844 36.515625 L 93.214844 38.285156 L 72.9375 38.285156 C 73.21875 40.195312 74 41.726562 75.273438 42.875 C 76.550781 44.019531 78.117188 44.597656 79.980469 44.597656 C 81.273438 44.597656 82.382812 44.332031 83.3125 43.792969 C 84.246094 43.253906 84.898438 42.484375 85.28125 41.46875 L 93.109375 41.46875 C 92.335938 44.5625 90.789062 46.964844 88.457031 48.667969 C 86.125 50.371094 83.269531 51.222656 79.867188 51.222656 C 76.960938 51.222656 74.378906 50.601562 72.117188 49.375 Z M 84.976562 33.191406 C 84.589844 31.660156 83.90625 30.46875 82.929688 29.617188 C 81.945312 28.765625 80.757812 28.34375 79.355469 28.34375 C 77.953125 28.34375 76.664062 28.773438 75.601562 29.644531 C 74.53125 30.515625 73.753906 31.703125 73.261719 33.191406 Z M 84.976562 33.191406" style="stroke:none;fill-rule:nonzero;fill:rgb(100%,100%,100%);fill-opacity:1;"/>
<path d="M 103.9375 50.273438 L 95.851562 50.273438 L 95.851562 11.167969 L 103.9375 11.167969 Z M 103.9375 50.273438" style="stroke:none;fill-rule:nonzero;fill:rgb(100%,100%,100%);fill-opacity:1;"/>
<path d="M 108.6875 18.476562 C 107.757812 17.554688 107.292969 16.414062 107.292969 15.066406 C 107.292969 13.714844 107.757812 12.632812 108.6875 11.726562 C 109.617188 10.820312 110.75 10.367188 112.078125 10.367188 C 113.40625 10.367188 114.582031 10.820312 115.492188 11.726562 C 116.402344 12.632812 116.859375 13.742188 116.859375 15.066406 C 116.859375 16.390625 116.410156 17.5625 115.492188 18.476562 C 114.582031 19.402344 113.445312 19.859375 112.078125 19.859375 C 110.710938 19.859375 109.617188 19.402344 108.6875 18.476562 Z M 116.125 50.257812 L 108.039062 50.257812 L 108.039062 22.621094 L 116.125 22.621094 Z M 116.125 50.257812" style="stroke:none;fill-rule:nonzero;fill:rgb(100%,100%,100%);fill-opacity:1;"/>
<path d="M 126.945312 50.265625 L 117.910156 50.265625 L 127.890625 36.398438 L 118.117188 22.632812 L 127.101562 22.632812 L 132.40625 30.40625 L 137.71875 22.632812 L 146.699219 22.632812 L 136.925781 36.398438 L 146.90625 50.265625 L 137.867188 50.265625 L 132.40625 41.820312 Z M 126.945312 50.265625" style="stroke:none;fill-rule:nonzero;fill:rgb(100%,100%,100%);fill-opacity:1;"/>
<path d="M 149.351562 18.476562 C 148.421875 17.554688 147.953125 16.414062 147.953125 15.066406 C 147.953125 13.714844 148.421875 12.632812 149.351562 11.726562 C 150.28125 10.820312 151.410156 10.367188 152.738281 10.367188 C 154.070312 10.367188 155.242188 10.820312 156.15625 11.726562 C 157.0625 12.632812 157.523438 13.742188 157.523438 15.066406 C 157.523438 16.390625 157.070312 17.5625 156.15625 18.476562 C 155.242188 19.402344 154.109375 19.859375 152.738281 19.859375 C 151.371094 19.859375 150.28125 19.402344 149.351562 18.476562 Z M 156.785156 50.257812 L 148.699219 50.257812 L 148.699219 22.621094 L 156.785156 22.621094 Z M 156.785156 50.257812" style="stroke:none;fill-rule:nonzero;fill:rgb(100%,100%,100%);fill-opacity:1;"/>
<path d="M 160.824219 50.289062 L 160.824219 22.65625 L 167.34375 22.65625 L 168.339844 28.28125 C 169.25 26.296875 170.511719 24.796875 172.117188 23.773438 C 173.726562 22.75 175.671875 22.234375 177.953125 22.234375 L 179.164062 22.234375 L 179.164062 29.953125 L 177.953125 29.953125 C 175.117188 29.953125 172.898438 30.625 171.308594 31.960938 C 169.714844 33.296875 168.917969 35.152344 168.917969 37.515625 L 168.917969 50.285156 L 160.824219 50.285156 Z M 160.824219 50.289062" style="stroke:none;fill-rule:nonzero;fill:rgb(100%,100%,100%);fill-opacity:1;"/>
</g>
</svg>